<svg width="1105" height="800" viewBox="0 0 1105 800" fill="none" xmlns="http://www.w3.org/2000/svg">
<path opacity="0.5" fill-rule="evenodd" clip-rule="evenodd" d="M1104.92 0H6.80384C-5.74812 23.1051 -3.77677 55.6198 37.2265 96.9463C94.5402 154.712 185.829 169.621 292.381 187.022C324.253 192.228 357.491 197.656 391.594 204.521C436.393 213.539 608.695 257.02 574.234 455.744C546.666 614.723 651.77 678.624 797.653 709.544C806.888 711.501 816.185 713.458 825.511 715.421C930.699 737.56 1039.51 760.461 1104.92 793.837V0Z" fill="#5E4AFC"/>
<circle cx="717.002" cy="691.515" r="49.849" fill="#5E4AFC"/>
<path opacity="0.5" fill-rule="evenodd" clip-rule="evenodd" d="M1104.92 0H388.309C380.118 20.2292 381.404 48.6968 408.162 84.8794C445.564 135.455 505.138 148.508 574.672 163.744C595.471 168.301 617.162 173.054 639.417 179.065C668.652 186.96 781.093 225.029 758.605 399.018C740.614 538.209 809.203 594.156 904.404 621.227C910.431 622.941 916.498 624.654 922.584 626.373L922.584 626.373C991.228 645.756 1062.24 665.807 1104.92 695.028V0Z" fill="#5E4AFC"/>
<path fill-rule="evenodd" clip-rule="evenodd" d="M594.419 0H1104.92V800H468.811C414.016 687.688 524.75 568.583 693.014 535.039C705.231 532.604 720.114 530.057 736.821 527.199L736.826 527.198L736.828 527.198C855.949 506.819 1067.82 470.574 1067.82 345.416C1067.82 215.698 924.968 205.896 879.865 202.802C877.847 202.663 876.025 202.538 874.419 202.416C817.449 198.095 732.743 178.498 672.775 141.208C641.974 122.055 601.301 45.7409 594.419 0Z" fill="url(#paint0_linear)" fill-opacity="0.65"/>
<circle cx="954.628" cy="458.386" r="69.3389" fill="#5E4AFC"/>
<circle cx="820.823" cy="139.427" r="46.4758" fill="#5E4AFC"/>
<defs>
<linearGradient id="paint0_linear" x1="806.314" y1="-27.7671" x2="806.314" y2="942.246" gradientUnits="userSpaceOnUse">
<stop stop-color="#5E4AFC"/>
<stop offset="1" stop-color="#5E4AFC"/>
</linearGradient>
</defs>
</svg>
