<svg width="71" height="86" viewBox="0 0 71 86" fill="none" xmlns="http://www.w3.org/2000/svg">
<path d="M45.4957 58.5426C52.0952 50.6285 67.9151 33.2595 49.9259 9.80574C56.4431 31.3829 29.305 40.0012 25.3587 59.4963C26.2027 35.0979 61.4287 28.7695 42.223 0C47.6168 15.7983 26.9078 35.3191 21.2279 44.0173C18.3327 47.8214 17.4313 51.5689 17.5652 56.8738C15.6328 51.1565 15.7783 46.8402 18.3135 42.8757C13.5898 39.3094 5.57097 38.1927 0 44.8505C16.6081 46.9716 10.9108 68.9844 35.0888 76.9035C28.5425 69.6887 32.813 57.2197 37.1966 51.9506C42.2687 45.8474 50.3341 39.2055 50.118 32.7714C51.1839 40.5359 44.4846 46.8286 39.1697 53.2028C34.0012 59.4057 25.2157 82.0554 70.1843 86C55.116 83.5571 35.0888 71.0191 45.4957 58.5426Z" fill="url(#paint0_linear)"/>
<defs>
<linearGradient id="paint0_linear" x1="11.132" y1="10.2481" x2="83.6377" y2="98.7184" gradientUnits="userSpaceOnUse">
<stop stop-color="white"/>
<stop offset="1" stop-color="#A59AFF"/>
</linearGradient>
</defs>
</svg>
