<svg width="54" height="45" viewBox="0 0 54 45" fill="none" xmlns="http://www.w3.org/2000/svg">
<path d="M48.9792 14.6507C47.2886 14.6507 45.9158 16.0228 45.9158 17.7078C45.9158 19.394 47.2886 20.7643 48.9792 20.7643C50.6641 20.7643 52.0356 19.3933 52.0356 17.7078C52.0356 16.0228 50.6635 14.6507 48.9792 14.6507ZM5.0271 14.6507C3.33654 14.6507 1.96374 16.0228 1.96374 17.7078C1.96374 19.394 3.33654 20.7643 5.0271 20.7643C6.71326 20.7643 8.08543 19.3933 8.08543 17.7078C8.08543 16.0228 6.71326 14.6507 5.0271 14.6507ZM39.8802 9.09033C37.3701 9.09033 35.3341 11.1313 35.3341 13.6433C35.3341 16.1503 37.3701 18.1876 39.8802 18.1876C42.3909 18.1876 44.4331 16.1503 44.4331 13.6433C44.4331 11.1338 42.3909 9.09033 39.8802 9.09033ZM54 36.7588H48.8165V27.2182C48.8165 25.5791 48.3349 24.0575 47.5612 22.7305C48.0171 22.5974 48.4849 22.5026 48.9792 22.5026C51.743 22.5026 54 24.7596 54 27.5303V36.7588ZM14.1192 9.09033C11.6072 9.09033 9.56624 11.1313 9.56624 13.6433C9.56624 16.1503 11.6072 18.1876 14.1192 18.1876C16.623 18.1876 18.664 16.1503 18.664 13.6433C18.664 11.1338 16.6236 9.09033 14.1192 9.09033ZM5.0271 22.5026C5.52133 22.5026 5.9829 22.5968 6.44008 22.7305C5.65823 24.0575 5.18472 25.5791 5.18472 27.2182V36.7588H0V27.5303C0 24.759 2.25827 22.5026 5.0271 22.5026ZM26.995 0C23.2898 0 20.2692 3.01755 20.2692 6.72653C20.2692 10.4349 23.2867 13.4562 26.995 13.4562C30.7039 13.4562 33.7252 10.4349 33.7252 6.72653C33.7283 3.01692 30.7039 0 26.995 0ZM47.1517 40.3096H39.2107V25.7933C39.2107 23.7969 38.6838 21.9399 37.8323 20.275C38.4823 20.0829 39.1655 19.9466 39.8808 19.9466C43.8874 19.9466 47.1517 23.2047 47.1517 27.2182V40.3096ZM14.7811 25.7933V40.3096H6.85016V27.2182C6.85016 23.2084 10.1101 19.9466 14.123 19.9466C14.8383 19.9466 15.5146 20.0829 16.1633 20.275C15.3111 21.9399 14.7811 23.7969 14.7811 25.7933ZM16.4459 44.5115H37.5453V25.7933C37.5453 19.9755 32.8108 15.2441 26.9943 15.2441C21.1735 15.2441 16.4459 19.9755 16.4459 25.7933V44.5115Z" fill="white"/>
</svg>
