<svg width="50" height="44" viewBox="0 0 50 44" fill="none" xmlns="http://www.w3.org/2000/svg">
<path d="M6.79297 43L33.1895 0.988281H42.7988L16.4023 43H6.79297ZM8.72656 7.72656C8.04297 8.41016 7.70117 9.26953 7.70117 10.3047C7.70117 11.3398 8.04297 12.1992 8.72656 12.8828C9.41016 13.5664 10.2695 13.9082 11.3047 13.9082C12.3398 13.9082 13.1992 13.5664 13.8828 12.8828C14.5664 12.1992 14.9082 11.3398 14.9082 10.3047C14.9082 9.26953 14.5664 8.41016 13.8828 7.72656C13.1992 7.04297 12.3398 6.70117 11.3047 6.70117C10.2695 6.70117 9.41016 7.04297 8.72656 7.72656ZM18.8926 3.18555C21.0215 5.2168 22.0859 7.58984 22.0859 10.3047C22.0859 13.0195 21.0215 15.4023 18.8926 17.4531C16.7832 19.4844 14.2441 20.5 11.2754 20.5C8.32617 20.5 5.78711 19.4844 3.6582 17.4531C1.54883 15.4023 0.494141 13.0195 0.494141 10.3047C0.494141 7.58984 1.54883 5.2168 3.6582 3.18555C5.78711 1.13477 8.32617 0.109375 11.2754 0.109375C14.2441 0.109375 16.7832 1.13477 18.8926 3.18555ZM35.709 31.1348C35.0449 31.7988 34.7129 32.6582 34.7129 33.7129C34.7129 34.748 35.0449 35.6074 35.709 36.291C36.3926 36.9551 37.252 37.2871 38.2871 37.2871C39.3418 37.2871 40.2012 36.9551 40.8652 36.291C41.5488 35.6074 41.8906 34.748 41.8906 33.7129C41.8906 32.6582 41.5488 31.7988 40.8652 31.1348C40.2012 30.4512 39.3418 30.1094 38.2871 30.1094C37.252 30.1094 36.3926 30.4512 35.709 31.1348ZM45.9043 26.5645C48.0332 28.5957 49.0977 30.9785 49.0977 33.7129C49.0977 36.4277 48.0332 38.8105 45.9043 40.8613C43.7949 42.8926 41.2559 43.9082 38.2871 43.9082C35.3379 43.9082 32.7988 42.8926 30.6699 40.8613C28.5605 38.8105 27.5059 36.4277 27.5059 33.7129C27.5059 30.9785 28.5605 28.5957 30.6699 26.5645C32.7988 24.5137 35.3379 23.4883 38.2871 23.4883C41.2559 23.4883 43.7949 24.5137 45.9043 26.5645Z" fill="white"/>
</svg>
