<svg width="58" height="51" viewBox="0 0 58 51" fill="none" xmlns="http://www.w3.org/2000/svg">
<path d="M43.657 32.2157V30.5541C43.657 28.146 45.0362 26.6167 46.8011 25.9411C48.1561 25.435 49.6461 25.435 51.0011 25.9411C52.766 26.6104 54.1452 28.146 54.1452 30.5541V32.2094C54.1452 32.2582 54.1452 32.2094 54.1452 32.3369C54.1155 34.167 53.4548 35.6853 52.4787 36.7468C51.5025 37.8083 50.1858 38.4288 48.8784 38.4288C48.8175 38.4288 48.9019 38.4288 48.7972 38.4288C47.4352 38.4021 46.0857 37.7091 45.1127 36.5216C44.2318 35.4443 43.657 33.9654 43.657 32.2157Z" fill="white"/>
<path d="M51.7414 39.1753L51.0276 38.8713L50.9932 38.8981C50.8829 38.9849 50.7785 39.0791 50.6808 39.18L49.5969 40.2825V45.7255L48.9237 46.4043L48.2505 45.7255V40.2888L47.1322 39.1863C47.0338 39.089 46.9295 38.998 46.8198 38.9139L46.7792 38.8824L46.0623 39.1785C45.1995 39.5182 44.3117 39.7894 43.407 39.9896C41.6889 40.4132 40.4019 40.7298 40.2707 42.6922L39.8021 49.7275H57.9999L57.5314 42.6922C57.4017 40.7503 56.1256 40.4353 54.4372 40.0148C53.5171 39.8108 52.6154 39.53 51.7414 39.1753Z" fill="white"/>
<path d="M3.85321 7.4668V5.80996C3.85321 3.40344 5.23238 1.87259 6.9989 1.19693C8.35391 0.690866 9.84386 0.690866 11.1989 1.19693C12.9638 1.86629 14.343 3.40186 14.343 5.80996V7.4668C14.343 7.51405 14.343 7.4668 14.343 7.59438C14.3133 9.42447 13.6526 10.9411 12.6764 12.0042C11.7003 13.0673 10.3867 13.6816 9.08405 13.6816C9.02313 13.6816 9.10592 13.6816 9.00283 13.6816C7.63147 13.6501 6.28354 12.9571 5.31047 11.7696C4.42956 10.6939 3.85321 9.21657 3.85321 7.4668Z" fill="white"/>
<path d="M11.9377 14.4251L11.2255 14.1211L11.1911 14.1479C11.0811 14.2351 10.9768 14.3292 10.8787 14.4298L9.79474 15.5322V20.9737L9.12 21.6525L8.44681 20.9737V15.537L7.33005 14.4345C7.23127 14.3376 7.12697 14.2467 7.01767 14.162L6.97549 14.1305L6.24764 14.4282C5.38453 14.7665 4.49681 15.0372 3.5924 15.2377C1.87429 15.6614 0.587279 15.978 0.456078 17.9419L0 24.9756H18.1963L17.7277 17.9419C17.5981 15.9984 16.322 15.685 14.6335 15.2645C13.7135 15.0602 12.8118 14.7794 11.9377 14.4251Z" fill="white"/>
<path fill-rule="evenodd" clip-rule="evenodd" d="M31.9489 44.5284C32.4122 44.4146 32.9014 44.491 33.3088 44.7409C33.7163 44.9908 34.0086 45.3936 34.1215 45.8608C34.2344 46.328 34.1586 46.8213 33.9108 47.2322C33.663 47.643 33.2634 47.9378 32.8001 48.0516C31.9067 48.2705 33.2249 47.9886 32.3112 48.1004C27.2337 48.716 22.0971 47.6147 17.7071 44.9693C13.3172 42.3239 9.92223 38.284 8.05475 33.4833L11.2988 31.9304C11.3355 31.9986 11.3678 32.0691 11.3957 32.1415C12.8243 35.8242 15.3212 38.9869 18.5601 41.2164C21.7991 43.4459 25.6296 44.6386 29.5513 44.6387C30.3297 44.6384 31.1073 44.5916 31.8801 44.4985C32.6517 44.404 31.1929 44.7127 31.9489 44.5284Z" fill="white"/>
<path fill-rule="evenodd" clip-rule="evenodd" d="M31.3538 50.9999V41.5723L36.0286 46.2861L31.3538 50.9999Z" fill="white"/>
<path fill-rule="evenodd" clip-rule="evenodd" d="M26.1136 6.49829C25.8861 6.582 25.6441 6.61848 25.4022 6.60553C25.1603 6.59259 24.9235 6.53049 24.706 6.42296C24.4885 6.31543 24.2948 6.16469 24.1366 5.9798C23.9783 5.7949 23.8587 5.57966 23.785 5.347C23.7113 5.11434 23.6849 4.86905 23.7076 4.62588C23.7302 4.3827 23.8014 4.14664 23.9167 3.93188C24.0321 3.71712 24.1893 3.52808 24.379 3.37612C24.5686 3.22416 24.7867 3.11241 25.0203 3.04757C25.8965 2.76408 24.6017 3.13892 25.506 2.96253C26.4097 2.78589 27.3229 2.66336 28.2409 2.59556C32.8693 2.25946 37.4906 3.33722 41.5026 5.68836C45.5146 8.03949 48.7309 11.5549 50.7325 15.7763L47.6086 17.5607C47.5663 17.4959 47.5287 17.428 47.4962 17.3576C45.6345 13.4274 42.5319 10.2313 38.6749 8.27062C34.8179 6.30991 30.4246 5.69541 26.1839 6.52349C25.4201 6.67311 26.854 6.2589 26.1136 6.49829Z" fill="white"/>
<path fill-rule="evenodd" clip-rule="evenodd" d="M26.2432 0L26.9195 9.40402L21.9183 5.04141L26.2432 0Z" fill="white"/>
</svg>
